<svg width="166" height="164" viewBox="0 0 166 164" fill="none" xmlns="http://www.w3.org/2000/svg">
<path fill-rule="evenodd" clip-rule="evenodd" d="M132.998 7H34.3127V18.5702H0V72.8412C0 93.8157 23.1638 111.076 45.8946 112.871C53.3567 120.951 66.4822 126.821 78.164 129.323V143.508C66.993 146.976 47.0383 155.123 45.8946 164H122.56C121.405 155.123 99.4179 146.965 88.2246 143.508V129.323C99.9509 126.821 113.665 120.951 121.138 112.871C143.858 111.076 166 93.8157 166 72.8412V18.5702H132.998V7ZM10.5381 28.8498H33.5131V75.6019C33.5131 84.8267 35.8673 93.6025 40.0092 101.503C22.8196 95.9704 10.5381 81.7181 10.5381 65.0417V28.8498ZM126.013 102.996C130.177 94.736 132.565 85.601 132.565 75.9386V29.1528H155.595V64.9071C155.595 82.3353 143.258 97.2161 126.013 102.996Z" fill="#FFBCA2"/>
<path d="M69.4254 5.98266L81.6866 0L77.8104 5.98266H107L81.6866 23.9306L101.858 21.1387L76.1493 49.4566L97.5075 43.0751V44.6705L54 69L78.9179 31.5087L62.306 29.9133L77.8104 5.98266H69.4254Z" fill="white"/>
</svg>
