<svg width="28" height="28" viewBox="0 0 28 28" fill="none" xmlns="http://www.w3.org/2000/svg">
<path fill-rule="evenodd" clip-rule="evenodd" d="M3.45334 14C3.45334 8.70797 7.57867 3.45331 14 3.45331C19.1856 3.45331 21.7504 7.29117 22.8424 9.33331H19.6C19.3525 9.33331 19.1151 9.43164 18.94 9.60667C18.765 9.78171 18.6667 10.0191 18.6667 10.2666C18.6667 10.5142 18.765 10.7516 18.94 10.9266C19.1151 11.1016 19.3525 11.2 19.6 11.2H25.2C25.4475 11.2 25.6849 11.1016 25.86 10.9266C26.035 10.7516 26.1333 10.5142 26.1333 10.2666V4.66664C26.1333 4.4191 26.035 4.18171 25.86 4.00667C25.6849 3.83164 25.4475 3.73331 25.2 3.73331C24.9525 3.73331 24.7151 3.83164 24.54 4.00667C24.365 4.18171 24.2667 4.4191 24.2667 4.66664V8.05091C22.9525 5.73251 19.9099 1.58664 14 1.58664C6.41574 1.58664 1.58667 7.81197 1.58667 14C1.58667 20.188 6.41574 26.4133 14 26.4133C17.6288 26.4133 20.6491 24.976 22.7995 22.7882C23.9405 21.6244 24.8457 20.2508 25.4651 18.7432C25.5116 18.6298 25.5354 18.5084 25.5351 18.3858C25.5347 18.2632 25.5102 18.1419 25.463 18.0288C25.4158 17.9157 25.3467 17.813 25.2598 17.7266C25.1729 17.6402 25.0698 17.5717 24.9564 17.5252C24.843 17.4786 24.7216 17.4548 24.599 17.4552C24.4765 17.4555 24.3552 17.48 24.2421 17.5272C24.129 17.5745 24.0263 17.6435 23.9398 17.7305C23.8534 17.8174 23.785 17.9205 23.7384 18.0338C23.2109 19.318 22.4402 20.4881 21.4685 21.4797C19.656 23.3277 17.108 24.5466 14 24.5466C7.57867 24.5466 3.45334 19.292 3.45334 14Z" fill="black"/>
</svg>
