<svg width="11" height="20" viewBox="0 0 11 20" fill="none" xmlns="http://www.w3.org/2000/svg">
<path d="M8.59253 19.9167C8.38088 19.9174 8.17177 19.8707 7.98055 19.78C7.78933 19.6893 7.62086 19.5569 7.48753 19.3925L0.645029 10.8925C0.436663 10.639 0.322754 10.3211 0.322754 9.99294C0.322754 9.6648 0.436663 9.34684 0.645029 9.09335L7.72836 0.593352C7.96882 0.304045 8.31436 0.12211 8.68897 0.0875719C9.06357 0.053034 9.43655 0.168722 9.72586 0.409185C10.0152 0.649648 10.1971 0.995189 10.2316 1.36979C10.2662 1.7444 10.1505 2.11738 9.91003 2.40668L3.57753 10L9.69753 17.5934C9.87076 17.8013 9.9808 18.0545 10.0146 18.323C10.0485 18.5916 10.0047 18.8642 9.88842 19.1086C9.77217 19.353 9.58834 19.559 9.35869 19.7022C9.12903 19.8454 8.86316 19.9198 8.59253 19.9167Z" fill="white"/>
</svg>
