<svg width="30" height="22" viewBox="0 0 30 22" fill="none" xmlns="http://www.w3.org/2000/svg">
<path d="M12.8633 0.987539C13.0539 1.07936 13.2147 1.22306 13.3273 1.40216C13.44 1.58125 13.4998 1.78847 13.5 2.00004V20C13.4997 20.2117 13.4397 20.419 13.3268 20.5981C13.214 20.7773 13.0529 20.9209 12.8621 21.0125C12.6712 21.1042 12.4584 21.1401 12.2481 21.1163C12.0378 21.0924 11.8384 21.0096 11.673 20.8775L6.35625 16.625H1.125C0.826631 16.625 0.540483 16.5065 0.329505 16.2955C0.118526 16.0846 0 15.7984 0 15.5V6.50004C0 6.20167 0.118526 5.91552 0.329505 5.70454C0.540483 5.49357 0.826631 5.37504 1.125 5.37504H6.35625L11.673 1.12254C11.8385 0.990212 12.0381 0.907334 12.2487 0.88345C12.4592 0.859566 12.6723 0.895647 12.8633 0.987539V0.987539ZM11.25 4.34004L7.452 7.37754C7.25286 7.5373 7.00531 7.62458 6.75 7.62504H2.25V14.375H6.75C7.00531 14.3755 7.25286 14.4628 7.452 14.6225L11.25 17.66V4.34004ZM28.9215 5.70354C29.0263 5.80804 29.1094 5.93219 29.1661 6.06886C29.2228 6.20554 29.252 6.35206 29.252 6.50004C29.252 6.64802 29.2228 6.79454 29.1661 6.93122C29.1094 7.06789 29.0263 7.19204 28.9215 7.29654L25.2158 11L28.9215 14.7035C29.1327 14.9148 29.2514 15.2013 29.2514 15.5C29.2514 15.7988 29.1327 16.0853 28.9215 16.2965C28.7103 16.5078 28.4237 16.6265 28.125 16.6265C27.8263 16.6265 27.5397 16.5078 27.3285 16.2965L23.625 12.5908L19.9215 16.2965C19.7103 16.5078 19.4237 16.6265 19.125 16.6265C18.8263 16.6265 18.5397 16.5078 18.3285 16.2965C18.1173 16.0853 17.9986 15.7988 17.9986 15.5C17.9986 15.2013 18.1173 14.9148 18.3285 14.7035L22.0343 11L18.3285 7.29654C18.2239 7.19194 18.1409 7.06777 18.0843 6.9311C18.0277 6.79444 17.9986 6.64796 17.9986 6.50004C17.9986 6.35212 18.0277 6.20564 18.0843 6.06898C18.1409 5.93231 18.2239 5.80814 18.3285 5.70354C18.5397 5.49229 18.8263 5.37362 19.125 5.37362C19.2729 5.37362 19.4194 5.40275 19.5561 5.45936C19.6927 5.51597 19.8169 5.59894 19.9215 5.70354L23.625 9.40929L27.3285 5.70354C27.433 5.59877 27.5572 5.51565 27.6938 5.45894C27.8305 5.40222 27.977 5.37303 28.125 5.37303C28.273 5.37303 28.4195 5.40222 28.5562 5.45894C28.6929 5.51565 28.817 5.59877 28.9215 5.70354V5.70354Z" fill="white" fill-opacity="0.6"/>
</svg>
