<svg width="21" height="22" viewBox="0 0 21 22" fill="none" xmlns="http://www.w3.org/2000/svg">
<path d="M13.9285 1.99999C13.9282 1.7883 13.8681 1.58098 13.7553 1.40188C13.6425 1.22277 13.4814 1.07914 13.2905 0.987491C13.0997 0.89584 12.8869 0.859888 12.6766 0.883768C12.4662 0.907648 12.2669 0.99039 12.1015 1.12249L6.78472 5.37499H1.55347C1.2551 5.37499 0.96895 5.49351 0.757972 5.70449C0.546993 5.91547 0.428467 6.20162 0.428467 6.49999V15.5C0.428467 15.7984 0.546993 16.0845 0.757972 16.2955C0.96895 16.5065 1.2551 16.625 1.55347 16.625H6.78472L12.1015 20.8775C12.2669 21.0096 12.4662 21.0923 12.6766 21.1162C12.8869 21.1401 13.0997 21.1041 13.2905 21.0125C13.4814 20.9208 13.6425 20.7772 13.7553 20.5981C13.8681 20.419 13.9282 20.2117 13.9285 20V1.99999ZM7.88047 7.37749L11.6785 4.33999V17.66L7.88047 14.6225C7.68133 14.4627 7.43377 14.3754 7.17847 14.375H2.67847V7.62499H7.17847C7.43377 7.62453 7.68133 7.53725 7.88047 7.37749ZM20.7347 11C20.7365 12.3299 20.4754 13.647 19.9664 14.8757C19.4575 16.1043 18.7108 17.2203 17.7692 18.1595L16.1785 16.5687C16.9108 15.8382 17.4916 14.9702 17.8873 14.0145C18.2831 13.0588 18.4861 12.0344 18.4847 11C18.486 9.96562 18.283 8.94118 17.8872 7.98552C17.4914 7.02986 16.9107 6.16182 16.1785 5.43124L17.7692 3.84049C18.7108 4.77965 19.4575 5.89564 19.9664 7.1243C20.4754 8.35297 20.7365 9.67009 20.7347 11Z" fill="white" fill-opacity="0.6"/>
</svg>
